<svg xmlns="http://www.w3.org/2000/svg" viewBox="0 0 11 11" width="100" height="100" shape-rendering="crispEdges">
  <!-- Ožkapėdė: a Lithuanian woven sash (juosta) motif, redrawn for this site. -->
  <g fill="#430505"><rect x="2" y="1.5" width="1" height="1"/><rect x="3" y="1.5" width="1" height="1"/><rect x="4" y="1.5" width="1" height="1"/><rect x="6" y="1.5" width="1" height="1"/><rect x="7" y="1.5" width="1" height="1"/><rect x="8" y="1.5" width="1" height="1"/><rect x="1" y="2.5" width="1" height="1"/><rect x="2" y="2.5" width="1" height="1"/><rect x="4" y="2.5" width="1" height="1"/><rect x="5" y="2.5" width="1" height="1"/><rect x="6" y="2.5" width="1" height="1"/><rect x="8" y="2.5" width="1" height="1"/><rect x="9" y="2.5" width="1" height="1"/><rect x="1" y="3.5" width="1" height="1"/><rect x="5" y="3.5" width="1" height="1"/><rect x="9" y="3.5" width="1" height="1"/><rect x="1" y="4.5" width="1" height="1"/><rect x="2" y="4.5" width="1" height="1"/><rect x="8" y="4.5" width="1" height="1"/><rect x="9" y="4.5" width="1" height="1"/><rect x="2" y="5.5" width="1" height="1"/><rect x="3" y="5.5" width="1" height="1"/><rect x="7" y="5.5" width="1" height="1"/><rect x="8" y="5.5" width="1" height="1"/><rect x="3" y="6.5" width="1" height="1"/><rect x="4" y="6.5" width="1" height="1"/><rect x="6" y="6.5" width="1" height="1"/><rect x="7" y="6.5" width="1" height="1"/><rect x="4" y="7.5" width="1" height="1"/><rect x="5" y="7.5" width="1" height="1"/><rect x="6" y="7.5" width="1" height="1"/><rect x="5" y="8.5" width="1" height="1"/></g>
</svg>
